<svg height="512" viewBox="0 0 64 64" width="512" xmlns="http://www.w3.org/2000/svg"><g id="Cloud_database" data-name="Cloud database"><path d="m53.95 19.74a5.969 5.969 0 0 0 -5.95-6.74 5.835 5.835 0 0 0 -2.44.52 14 14 0 0 0 -27.12 0 5.835 5.835 0 0 0 -2.44-.52 5.969 5.969 0 0 0 -5.95 6.74 11 11 0 0 0 3.95 21.26s36.67-.02 37-.05a10.993 10.993 0 0 0 2.95-21.21z" fill="#96c8ef"/><path d="m42.56 13.52a5.835 5.835 0 0 1 2.44-.52c.138 0 .274.012.41.021a13.888 13.888 0 0 0 -14.91-9.932 14 14 0 0 1 12.06 10.431z" fill="#78b9eb"/><path d="m53.95 19.74a5.983 5.983 0 0 0 -7.45-6.54 5.952 5.952 0 0 1 4.45 6.54 10.993 10.993 0 0 1 -2.95 21.21c-.273.025 2.67.03 3 0a10.993 10.993 0 0 0 2.95-21.21z" fill="#78b9eb"/><rect fill="#ffcd00" height="42" rx="4" width="32" x="16" y="19"/><circle cx="32" cy="33" fill="#006df0" r="10"/><circle cx="32" cy="33" fill="#f1f2f2" r="2"/><path d="m43.073 43.069a2.23 2.23 0 0 0 -.52-3.54l-2.133-1.149-4.42-2.38 3.529 6.553a2.23 2.23 0 0 0 3.54.52z" fill="#d80027"/><path d="m20 61h24a4 4 0 0 0 4-4v-25c0 16.029-12.523 29-28 29z" fill="#ddb200"/><path d="m23 49h18v6h-18z" fill="#5eac24"/><g fill="#231f20"><path d="m19 22h2v2h-2z"/><path d="m43 22h2v2h-2z"/><path d="m19 56h2v2h-2z"/><path d="m43 56h2v2h-2z"/><path d="m41 48h-18a1 1 0 0 0 -1 1v6a1 1 0 0 0 1 1h18a1 1 0 0 0 1-1v-6a1 1 0 0 0 -1-1zm-1 6h-16v-4h16z"/><path d="m32 36a3 3 0 1 0 -3-3 3 3 0 0 0 3 3zm0-4a1 1 0 1 1 -1 1 1 1 0 0 1 1-1z"/><path d="m32 44a10.966 10.966 0 0 0 6.152-1.894l.5.921a3.2 3.2 0 0 0 2.375 1.665 3.25 3.25 0 0 0 .48.035 3.193 3.193 0 0 0 2.273-.947 3.23 3.23 0 0 0 -.753-5.128l-1.248-.672a10.9 10.9 0 0 0 1.221-4.98 11 11 0 1 0 -11 11zm10.713-2.687a1.219 1.219 0 0 1 -.347 1.049 1.23 1.23 0 0 1 -1.953-.287l-1.948-3.618 3.618 1.948a1.22 1.22 0 0 1 .63.908zm-10.713-17.313a9.011 9.011 0 0 1 9 9 8.9 8.9 0 0 1 -.978 4.03l-3.548-1.91a1 1 0 0 0 -1.354 1.354l2.08 3.867a9 9 0 1 1 -5.2-16.341z"/><path d="m55 19.1c0-.032 0-.063 0-.095a7.014 7.014 0 0 0 -8.78-6.774 15 15 0 0 0 -28.44 0 7.014 7.014 0 0 0 -8.78 6.769v.095a12 12 0 0 0 5 22.905h1v15a5.006 5.006 0 0 0 5 5h24a5.006 5.006 0 0 0 5-5v-15s1.73-.021 2.089-.054a11.994 11.994 0 0 0 3.911-22.846zm-8 37.9a3 3 0 0 1 -3 3h-24a3 3 0 0 1 -3-3v-34a3 3 0 0 1 3-3h24a3 3 0 0 1 3 3zm3.91-17.046c-.3.027-1.91.046-1.91.046v-17a5.006 5.006 0 0 0 -5-5h-24a5.006 5.006 0 0 0 -5 5v17h-1a10 10 0 0 1 -3.6-19.325 1 1 0 0 0 .637-1.058 5.21 5.21 0 0 1 -.037-.617 5.006 5.006 0 0 1 5-5 4.8 4.8 0 0 1 2.022.429 1 1 0 0 0 1.387-.661 13 13 0 0 1 25.182 0 1 1 0 0 0 1.387.661 4.8 4.8 0 0 1 2.022-.429 5.006 5.006 0 0 1 5 5 5.21 5.21 0 0 1 -.042.617 1 1 0 0 0 .637 1.058 9.993 9.993 0 0 1 -2.685 19.279z"/></g></g></svg>